<?xml version="1.0" encoding="UTF-8" standalone="no"?>
<svg
   viewBox="0 0 512 512"
   version="1.1"
   id="svg1"
   sodipodi:docname="code-03.svg"
   width="512"
   height="512"
   inkscape:version="1.4.4 (dcaf3e7, 2026-05-05)"
   xmlns:inkscape="http://www.inkscape.org/namespaces/inkscape"
   xmlns:sodipodi="http://sodipodi.sourceforge.net/DTD/sodipodi-0.dtd"
   xmlns="http://www.w3.org/2000/svg"
   xmlns:svg="http://www.w3.org/2000/svg">
  <defs
     id="defs1">
    <inkscape:path-effect
       effect="fillet_chamfer"
       id="path-effect5"
       is_visible="true"
       lpeversion="1"
       nodesatellites_param="F,0,0,1,0,24,0,1 @ F,0,0,1,0,24,0,1 @ F,0,0,1,0,0,0,1 @ F,0,1,1,0,24,0,1 @ F,0,1,1,0,24,0,1 @ F,0,0,1,0,0,0,1 @ F,0,1,1,0,24,0,1 @ F,0,0,1,0,0,0,1"
       radius="24"
       unit="px"
       method="auto"
       mode="F"
       chamfer_steps="1"
       flexible="false"
       use_knot_distance="true"
       apply_no_radius="true"
       apply_with_radius="true"
       only_selected="true"
       hide_knots="false" />
    <inkscape:path-effect
       effect="fillet_chamfer"
       id="path-effect4"
       is_visible="true"
       lpeversion="1"
       nodesatellites_param="F,0,0,1,0,24,0,1 @ F,0,0,1,0,24,0,1 @ F,0,0,1,0,24,0,1 @ F,0,0,1,0,24,0,1"
       radius="24"
       unit="px"
       method="auto"
       mode="F"
       chamfer_steps="1"
       flexible="false"
       use_knot_distance="true"
       apply_no_radius="true"
       apply_with_radius="true"
       only_selected="false"
       hide_knots="false" />
    <inkscape:path-effect
       effect="fillet_chamfer"
       id="path-effect3"
       is_visible="true"
       lpeversion="1"
       nodesatellites_param="F,0,0,1,0,0,0,1 @ F,0,0,1,0,0,0,1 @ F,0,0,1,0,0,0,1 @ F,0,0,1,0,0,0,1 @ F,0,0,1,0,0,0,1 @ F,0,0,1,0,0,0,1 @ F,0,0,1,0,0,0,1 @ F,0,0,1,0,0,0,1"
       radius="24"
       unit="px"
       method="auto"
       mode="F"
       chamfer_steps="1"
       flexible="false"
       use_knot_distance="true"
       apply_no_radius="true"
       apply_with_radius="true"
       only_selected="true"
       hide_knots="false" />
    <inkscape:path-effect
       effect="fillet_chamfer"
       id="path-effect1"
       is_visible="true"
       lpeversion="1"
       nodesatellites_param="F,0,0,1,0,48,0,1 @ F,0,0,1,0,48,0,1 @ F,0,0,1,0,48,0,1 @ F,0,0,1,0,48,0,1"
       radius="48"
       unit="px"
       method="auto"
       mode="F"
       chamfer_steps="1"
       flexible="false"
       use_knot_distance="true"
       apply_no_radius="true"
       apply_with_radius="true"
       only_selected="false"
       hide_knots="false" />
    <inkscape:path-effect
       effect="fillet_chamfer"
       id="path-effect2"
       is_visible="true"
       lpeversion="1"
       nodesatellites_param="F,0,0,1,0,52,0,1 @ C,0,1,1,0,104,0,1 @ F,0,0,1,0,52,0,1 @ F,0,0,1,0,52,0,1"
       radius="104"
       unit="px"
       method="auto"
       mode="F"
       chamfer_steps="1"
       flexible="false"
       use_knot_distance="true"
       apply_no_radius="true"
       apply_with_radius="true"
       only_selected="true"
       hide_knots="false" />
  </defs>
  <sodipodi:namedview
     id="namedview1"
     pagecolor="#ffffff"
     bordercolor="#000000"
     borderopacity="0.25"
     inkscape:showpageshadow="2"
     inkscape:pageopacity="0.0"
     inkscape:pagecheckerboard="0"
     inkscape:deskcolor="#d1d1d1"
     inkscape:zoom="1.1865234"
     inkscape:cx="116.30618"
     inkscape:cy="274.33087"
     inkscape:window-width="2019"
     inkscape:window-height="1243"
     inkscape:window-x="119"
     inkscape:window-y="46"
     inkscape:window-maximized="0"
     inkscape:current-layer="svg1" />
  <!--! Font Awesome Free 6.7.2 by @fontawesome - https://fontawesome.com License - https://fontawesome.com/license/free (Icons: CC BY 4.0, Fonts: SIL OFL 1.1, Code: MIT License) Copyright 2024 Fonticons, Inc. -->
  <path
     id="rect1"
     style="fill:#333333;stroke:#000000;stroke-width:0.115533"
     d="M 46.688927,48.016171 V 463.90064 a 48,48 45 0 0 48,48 l 323.884463,0 a 48,48 135 0 0 48,-48 V 48.016171 a 48,48 45 0 0 -48,-47.99999973 H 94.688927 a 48,48 135 0 0 -48,47.99999973 z"
     inkscape:path-effect="#path-effect1"
     inkscape:original-d="M 46.688927,0.01617127 V 511.90064 H 466.57339 V 0.01617127 Z" />
  <path
     style="fill:#ffffff;stroke:#000000;stroke-width:0.159873"
     id="rect2-0"
     width="63.840126"
     height="149.84013"
     x="-388.78732"
     y="258.73325"
     transform="rotate(-90)"
     inkscape:path-effect="#path-effect4"
     sodipodi:type="rect"
     d="m -364.78732,258.73325 h 15.84012 a 24,24 45 0 1 24,24 v 101.84013 a 24,24 135 0 1 -24,24 h -15.84012 a 24,24 45 0 1 -24,-24 V 282.73325 a 24,24 135 0 1 24,-24 z" />
  <path
     id="rect2-0-5"
     style="fill:#ffffff;stroke:#000000;stroke-width:0.175119"
     d="m 114.30627,155.40321 -11.18974,11.18973 a 24.00029,24.00029 0 0 0 -2e-4,33.94133 l 65.05306,65.05463 -65.05287,65.05287 a 24,24 0 0 0 0,33.94112 l 11.18974,11.18974 a 24,24 0 0 0 33.94113,0 l 65.05287,-65.05288 28.1603,-28.16029 a 24.000519,24.000519 0 0 0 3.7e-4,-33.9415 l -28.16067,-28.16188 -65.05287,-65.05287 a 24,24 0 0 0 -33.94112,0 z" />
</svg>
